<svg width="843" height="544" viewBox="0 0 843 544" fill="none" xmlns="http://www.w3.org/2000/svg">
<g filter="url(#filter0_f_257_4364)">
<path opacity="0.57" fill-rule="evenodd" clip-rule="evenodd" d="M201.395 46.6773C201.341 46.4248 211.874 79.3645 230.858 116.964C250.272 154.771 276.705 198.208 328.651 250.599C333.074 255.628 337.543 260.611 342.058 265.546C333.75 259.786 323.872 253.81 312.223 247.988C268.323 226.081 223.31 177.522 197.94 107.218C198.685 110.342 203.277 145.456 228.269 187.582C253.73 230.995 301.34 282.01 376.153 301.048C388.499 313.297 401.146 325.215 414.08 336.796C399.862 326.166 376.053 311.875 340.607 300.736C285.603 283.539 223.144 233.062 181.279 149.777C182.968 154.415 194.563 197.439 231.519 244.045C269.882 293.216 336.969 346.437 428.091 351.354C428.672 351.393 429.258 351.424 429.841 351.454C430.113 351.468 430.383 351.484 430.653 351.496C430.653 351.496 430.653 351.495 430.652 351.494L430.654 351.495C430.646 351.486 430.419 351.22 429.971 350.73C436.573 356.398 443.246 361.981 449.988 367.476C433.104 359.832 408.024 351.48 374.475 347.96C315.816 341.919 241.507 301.861 181.062 219.357C183.657 223.896 204.983 269.282 252.813 311.739C301.871 356.213 380.092 397.46 470.195 383.523C481.343 392.147 492.669 400.538 504.166 408.691C485.978 402.82 459.416 397.237 424.935 397.72C364.498 398.705 283.579 366.248 211.947 287.037C215.091 291.422 242.41 336.623 296.557 375.123C351.819 415.383 436.233 448.359 525.519 423.428C539.705 432.955 554.138 442.127 568.805 450.937C550.614 445.309 517.538 438.657 472.165 444.062C411.027 451.512 325.085 426.743 243.499 352.028C247.119 356.189 280.008 400.417 339.464 434.517C401.126 470.906 492.484 495.966 581.367 458.36C601.609 470.127 622.282 481.21 643.354 491.584C622.423 488.2 587.677 486.247 542.827 496.923C478.274 512.512 382.265 495.981 285.518 422.973C290.057 427.291 330.79 472.251 399.058 502.431C469.613 534.812 570.71 550.792 660.316 499.743C674.487 506.398 688.833 512.735 703.341 518.75C682.298 518.551 645.111 522.097 600.407 543.739C540.927 572.848 442.438 575.76 328.558 518.264C333.068 521.24 385.435 561.381 461.094 579.189C538.769 598.818 641.669 594.261 717.145 524.355C734.149 531.116 751.371 537.435 768.798 543.302C747.327 545.04 708.646 552.22 664.328 579.955C606.808 616.345 505.768 629.855 381.702 581.259C386.476 583.813 445.417 620.687 525.621 631.402C608.013 643.872 713.367 628.094 782.314 547.749C795.326 551.93 808.447 555.86 821.673 559.534C799.706 565.205 766.057 578.253 731.059 608.778C680.18 653.679 582.254 681.741 450.26 649.327C454.328 650.866 520.268 681 602.64 680.757C685.555 682.048 785.357 652.107 841.013 564.706C887.811 576.737 935.859 585.594 984.899 591.079C991.212 591.787 996.904 588.58 997.526 584.036C998.145 579.504 993.581 575.391 987.385 574.803C937.709 570.078 888.945 561.841 841.38 550.283C860.067 446.781 829.333 368.364 800.878 312.067C770.706 255.432 742.886 221.65 741.547 221.467C782.917 302.861 808.212 380.223 801.913 446.542C796.625 497.928 815.537 531.159 828.558 547.078C815.397 543.7 802.33 540.066 789.364 536.18C796.75 431.294 762.125 354.707 730.247 299.994C697.589 245.967 667.679 213.812 666.491 213.688C712.448 291.819 741.522 366.076 741.783 431.393C741.623 489.609 770.177 522.746 782.99 534.246C764.063 528.439 745.354 522.096 726.883 515.228C736.853 413.161 706.084 336.911 676.827 281.942C646.713 227.357 618.126 194.274 617.012 194.099C659.833 273.186 685.583 347.423 683.761 411.717C681.919 464.925 704.868 497.886 717.817 511.806C704.079 506.548 690.476 500.999 677.014 495.164C686.985 394.965 658.347 319.132 630.506 263.978C601.641 208.699 573.597 174.704 572.55 174.509C613.906 254.857 638.01 329.462 635.418 393.581C633.213 441.128 650.891 472.938 663.654 489.257C651.871 483.946 640.2 478.415 628.648 472.665C633.991 375.788 605.118 303.07 576.84 249.943C547.737 196.725 519.247 163.702 518.368 163.556C561.012 241.424 585.854 313.109 585.739 375.185C585.448 419.375 601.9 449.282 614.369 465.418C601.738 458.88 589.253 452.08 576.922 445.023C573.871 344.953 541.516 271.785 510.253 218.048C478.486 164.53 447.842 130.926 447.082 130.844C494.141 210.201 522.65 282.342 527.19 346.154C530.167 389.917 547.528 419.294 560.894 435.653C546.288 426.933 531.907 417.846 517.765 408.401C522.004 316.007 495.767 246.383 469.175 195.116C442.399 144.516 415.269 112.326 414.646 112.234C455.212 187.062 477.867 254.506 478.63 312.729C479.105 358.953 497.709 388.753 508.981 402.468C497.305 394.492 485.796 386.27 474.46 377.807C466.115 214.064 364.611 115.985 355.864 104.605C399.527 173.491 425.341 235.696 431.159 290.646C435.105 328.317 449.862 353.521 461.056 367.627C448.379 357.829 435.928 347.724 423.715 337.319C414.298 245.534 382.841 179.101 352.329 130.031C321.926 81.7063 292.478 50.8542 292.118 50.9774C338.886 123.767 367.373 188.693 375.928 246.716C381.177 282.303 394.697 306.855 406.036 321.901C396.119 313.047 386.367 303.99 376.787 294.734C363.61 154.484 271.273 59.0049 262.747 47.7301C303.94 112.59 329.189 168.985 336.616 217.223C340.742 244.01 350.344 263.894 359.143 277.263C350.622 268.616 342.246 259.807 334.02 250.837C331.923 239.76 323.675 213.219 295.034 184.543C261.455 150.944 233.056 107.976 201.395 46.6773ZM355.274 103.674C355.324 103.854 355.524 104.164 355.864 104.605C355.667 104.296 355.472 103.985 355.274 103.674ZM262.122 46.7445C262.164 46.914 262.379 47.2427 262.747 47.7301C262.539 47.4021 262.331 47.0729 262.122 46.7445Z" fill="#1C1C1C" fill-opacity="0.1"/>
</g>
<defs>
<filter id="filter0_f_257_4364" x="171.062" y="36.6758" width="836.52" height="654.121" filterUnits="userSpaceOnUse" color-interpolation-filters="sRGB">
<feFlood flood-opacity="0" result="BackgroundImageFix"/>
<feBlend mode="normal" in="SourceGraphic" in2="BackgroundImageFix" result="shape"/>
<feGaussianBlur stdDeviation="5" result="effect1_foregroundBlur_257_4364"/>
</filter>
</defs>
</svg>
